<svg width="65" height="72" viewBox="0 0 65 72" fill="none" xmlns="http://www.w3.org/2000/svg">
<g clip-path="url(#clip0_17791_18142)">
<path d="M29.5948 1.21558C20.3377 1.21558 12.7637 8.7896 12.7637 18.0467V24.7792H19.4961V18.0467C19.4961 12.4925 24.0406 7.94804 29.5948 7.94804C35.1491 7.94804 39.6935 12.4925 39.6935 18.0467V24.7792H46.426V18.0467C46.426 8.7896 38.852 1.21558 29.5948 1.21558Z" fill="#3B3F42"/>
<path d="M9.39844 25.6208H49.793C53.031 25.6208 55.6845 28.2734 55.6846 31.5115V61.8074C55.6846 65.0455 53.031 67.699 49.793 67.699H9.39844C6.16038 67.6989 3.50781 65.0454 3.50781 61.8074V31.5115C3.50784 28.2734 6.1604 25.6209 9.39844 25.6208Z" stroke="#3B3F42" stroke-width="1.68312"/>
<path d="M29.5943 51.7091C32.383 51.7091 34.6436 49.4484 34.6436 46.6597C34.6436 43.871 32.383 41.6104 29.5943 41.6104C26.8056 41.6104 24.5449 43.871 24.5449 46.6597C24.5449 49.4484 26.8056 51.7091 29.5943 51.7091Z" fill="#3B3F42"/>
<path d="M38.8511 53.8136C36.8612 53.8138 34.9295 54.4857 33.3689 55.7205C31.8084 56.9553 30.7103 58.6807 30.2526 60.6173C29.7948 62.5539 30.0042 64.5884 30.8467 66.3912C31.6893 68.194 33.1157 69.6597 34.895 70.5508C36.6743 71.4419 38.7023 71.7064 40.6506 71.3013C42.599 70.8963 44.3535 69.8454 45.6302 68.3189C46.9069 66.7924 47.6309 64.8797 47.6851 62.8905C47.7393 60.9012 47.1204 58.9519 45.9286 57.3582L51.7253 51.5616L53.4118 53.2481C53.9908 53.827 54.7381 54.2411 55.6285 54.0778C56.364 53.9432 56.9127 53.4416 57.2224 53.1488L57.5539 52.8323C58.1498 52.2601 58.5251 51.8999 59.1142 51.8023C59.5653 51.7265 60.1274 51.5936 60.6425 51.2721C61.2256 50.9097 61.662 50.3529 61.8745 49.7C62.1037 49.039 62.0827 48.3169 61.8156 47.6702C61.5648 47.0508 61.1238 46.4954 60.6054 45.9787L58.956 44.3292L62.4653 40.8199C62.6883 40.5806 62.8096 40.2641 62.8039 39.9371C62.7981 39.6101 62.6656 39.298 62.4343 39.0668C62.2031 38.8355 61.891 38.703 61.564 38.6972C61.237 38.6914 60.9205 38.8128 60.6812 39.0358L44.1429 55.5724C42.6162 54.4282 40.759 53.8109 38.8511 53.8136Z" fill="#3B3F42"/>
</g>
<defs>
<clipPath id="clip0_17791_18142">
<rect width="64.8" height="72" fill="white"/>
</clipPath>
</defs>
</svg>
