<svg width="65" height="72" viewBox="0 0 65 72" fill="none" xmlns="http://www.w3.org/2000/svg">
<path d="M6.9502 2.6001H37.0498C38.4952 2.6001 39.8812 3.1747 40.9033 4.19678C41.9254 5.21885 42.5 6.60486 42.5 8.05029V63.9497C42.5 65.3951 41.9254 66.7821 40.9033 67.8042C39.8813 68.826 38.495 69.3999 37.0498 69.3999H6.9502C5.50495 69.3999 4.11872 68.826 3.09668 67.8042C2.07461 66.7821 1.5 65.3951 1.5 63.9497V8.05029C1.5 6.60486 2.07461 5.21885 3.09668 4.19678C4.11875 3.1747 5.50477 2.6001 6.9502 2.6001Z" stroke="#3B3F42" stroke-width="2"/>
<path d="M17.7012 53.7002H26.3008C26.7384 53.7002 27.1583 53.8742 27.4678 54.1836C27.7771 54.493 27.9512 54.9131 27.9512 55.3506C27.9511 55.7879 27.7769 56.2073 27.4678 56.5166C27.1583 56.826 26.7384 57 26.3008 57H17.7012C17.2636 57 16.8436 56.826 16.5342 56.5166C16.2249 56.2073 16.0509 55.788 16.0508 55.3506C16.0508 54.913 16.2247 54.493 16.5342 54.1836C16.8436 53.8742 17.2636 53.7002 17.7012 53.7002Z" fill="#3B3F42" stroke="#3B3F42"/>
<g clip-path="url(#clip0_18784_20530)">
<path d="M53.3653 41.5957C56.1458 40.3352 56.637 33.8659 56.637 29C56.637 24.1342 56.0902 17.6649 53.3653 16.4044C51.9936 15.144 44.6531 14.801 38.5361 14.801C32.419 14.801 25.1156 15.144 23.7068 16.4044C20.9819 17.6649 20.4629 24.1342 20.4629 29C20.4629 33.8659 20.9819 40.3352 23.7068 41.5957C25.0878 42.8561 32.4283 43.1991 38.5361 43.1991C44.6439 43.1991 51.9658 42.9025 53.3653 41.5957Z" fill="#E8E8E8" stroke="#3B3F42" stroke-miterlimit="10"/>
<path d="M24.3281 22.5122C27.7111 26.0434 32.614 29.862 34.1247 30.52C35.4979 31.1935 37.007 31.5436 38.5364 31.5436C40.0658 31.5436 41.575 31.1935 42.9481 30.52C44.4496 29.9268 49.3525 26.0805 52.7354 22.5122M33.374 30.2883L26.9232 36.7483M43.6989 30.2883L50.1589 36.7483" stroke="#3B3F42" stroke-miterlimit="10" stroke-linecap="round"/>
<path d="M46.9238 17.4424C48.5892 17.4395 50.2423 17.7281 51.8082 18.2951" stroke="#3B3F42" stroke-miterlimit="10" stroke-linecap="round"/>
</g>
<defs>
<clipPath id="clip0_18784_20530">
<rect width="38" height="38" fill="white" transform="translate(20 10)"/>
</clipPath>
</defs>
</svg>
