<svg width="63" height="55" viewBox="0 0 63 55" fill="none" xmlns="http://www.w3.org/2000/svg">
<path fill-rule="evenodd" clip-rule="evenodd" d="M51 30.5C51.5612 30.5 52.1112 30.6574 52.5875 30.9544C53.0637 31.2514 53.4471 31.676 53.694 32.18L53.838 32.531L54.228 33.665C54.6396 34.8716 55.3028 35.9769 56.1738 36.9078C57.0447 37.8388 58.1035 38.5741 59.28 39.065L59.835 39.275L60.969 39.662C61.5306 39.8536 62.0227 40.2074 62.3832 40.6787C62.7437 41.15 62.9563 41.7176 62.9942 42.3097C63.0321 42.9019 62.8936 43.492 62.5961 44.0053C62.2986 44.5187 61.8556 44.9324 61.323 45.194L60.969 45.338L59.835 45.728C58.6284 46.1396 57.5231 46.8028 56.5922 47.6738C55.6612 48.5447 54.9259 49.6035 54.435 50.78L54.225 51.335L53.838 52.469C53.6464 53.0306 53.2926 53.5227 52.8213 53.8832C52.35 54.2437 51.7824 54.4563 51.1903 54.4942C50.5981 54.5321 50.008 54.3936 49.4947 54.0961C48.9813 53.7986 48.5676 53.3556 48.306 52.823L48.162 52.469L47.772 51.335C47.3604 50.1284 46.6972 49.0231 45.8262 48.0922C44.9553 47.1612 43.8965 46.4259 42.72 45.935L42.165 45.725L41.031 45.338C40.4694 45.1464 39.9773 44.7926 39.6168 44.3213C39.2563 43.85 39.0437 43.2824 39.0058 42.6903C38.9679 42.0981 39.1064 41.508 39.4039 40.9947C39.7014 40.4813 40.1444 40.0676 40.677 39.806L41.031 39.662L42.165 39.272C43.3716 38.8604 44.4769 38.1972 45.4078 37.3262C46.3388 36.4553 47.0741 35.3965 47.565 34.22L47.775 33.665L48.162 32.531C48.3641 31.9388 48.7464 31.4246 49.2553 31.0604C49.7642 30.6962 50.3742 30.5002 51 30.5ZM54 0.5C55.5137 0.499521 56.9717 1.07122 58.0816 2.10049C59.1916 3.12976 59.8715 4.54053 59.985 6.05L60 6.5V21.5C59.9992 22.2646 59.7064 23.0001 59.1815 23.5561C58.6565 24.1121 57.9391 24.4467 57.1758 24.4915C56.4125 24.5363 55.6609 24.288 55.0745 23.7972C54.4881 23.3064 54.1113 22.6103 54.021 21.851L54 21.5V14.405L32.88 32.006C32.1321 32.6288 31.2025 32.9923 30.2305 33.0421C29.2585 33.0919 28.2966 32.8252 27.489 32.282L27.12 32.006L6 14.405V42.5H30C30.7646 42.5008 31.5001 42.7936 32.0561 43.3185C32.6121 43.8435 32.9467 44.5609 32.9915 45.3242C33.0363 46.0875 32.788 46.8391 32.2972 47.4255C31.8064 48.0119 31.1103 48.3887 30.351 48.479L30 48.5H6C4.48627 48.5005 3.0283 47.9288 1.91836 46.8995C0.808412 45.8702 0.12853 44.4595 0.0150006 42.95L3.00804e-07 42.5V6.5C-0.000478738 4.98627 0.571219 3.5283 1.60049 2.41836C2.62976 1.30841 4.04053 0.62853 5.55 0.515001L6 0.5H54ZM51 40.088C50.2903 40.9811 49.4811 41.7903 48.588 42.5C49.484 43.212 50.288 44.016 51 44.912C51.71 44.016 52.514 43.212 53.412 42.5C52.5189 41.7903 51.7097 40.9811 51 40.088ZM54 6.5H6V6.596L30 26.594L54 6.596V6.5Z" fill="#3B3F42"/>
</svg>
